<svg width="32" height="28" viewBox="0 0 32 28" fill="none" xmlns="http://www.w3.org/2000/svg">
<path d="M25.03 0.110003C29.08 0.110003 31.33 3.35 31.33 9.2C31.33 17.21 27.64 22.97 20.62 27.02L18.28 23.06C23.41 19.73 25.93 16.22 25.93 10.46L24.67 3.8L28.9 8.93C27.64 10.1 26.65 10.73 25.03 10.73C22.24 10.73 19.72 8.93 19.72 5.6C19.72 2.18 21.88 0.110003 25.03 0.110003ZM7.39 0.110003C11.35 0.110003 13.69 3.35 13.69 9.2C13.69 17.21 9.91 22.97 2.98 27.02L0.639999 23.06C5.68 19.73 8.2 16.22 8.2 10.46L7.12 3.8L11.26 8.93C10 10.1 8.92 10.73 7.39 10.73C4.6 10.73 2.08 8.93 2.08 5.6C2.08 2.18 4.24 0.110003 7.39 0.110003Z" fill="#989898"/>
</svg>
