<svg width="32" height="28" viewBox="0 0 32 28" fill="none" xmlns="http://www.w3.org/2000/svg">
<path d="M6.97 27.89C2.92 27.89 0.67 24.65 0.67 18.8C0.67 10.79 4.36 5.03 11.38 0.979995L13.72 4.94C8.59 8.27 6.07 11.78 6.07 17.54L7.33 24.2L3.1 19.07C4.36 17.9 5.35 17.27 6.97 17.27C9.76 17.27 12.28 19.07 12.28 22.4C12.28 25.82 10.12 27.89 6.97 27.89ZM24.61 27.89C20.65 27.89 18.31 24.65 18.31 18.8C18.31 10.79 22.09 5.03 29.02 0.979995L31.36 4.94C26.32 8.27 23.8 11.78 23.8 17.54L24.88 24.2L20.74 19.07C22 17.9 23.08 17.27 24.61 17.27C27.4 17.27 29.92 19.07 29.92 22.4C29.92 25.82 27.76 27.89 24.61 27.89Z" fill="#989898"/>
</svg>
