<svg width="30" height="30" viewBox="0 0 30 30" fill="none" xmlns="http://www.w3.org/2000/svg">
<mask id="mask0_2323_16" style="mask-type:alpha" maskUnits="userSpaceOnUse" x="0" y="0" width="30" height="30">
<rect width="30" height="30" fill="black"/>
</mask>
<g mask="url(#mask0_2323_16)">
<path d="M15.6206 3C13.0165 3.08594 10.3592 2.79681 7.80278 3.41375C5.26665 4.03775 3.42084 6.40131 3.17941 8.96381C2.88953 12.1086 3.04059 15.2762 3.03022 18.4301C3.02209 20.6664 3.24128 23.1514 4.88622 24.8408C6.57321 26.7487 9.2739 27.019 11.663 26.9696C14.8601 26.9774 18.0725 27.1007 21.2579 26.7875C23.7147 26.4718 25.9393 24.6876 26.5639 22.2534C27.1729 19.8875 26.9115 17.4116 27 14.9949C26.9061 12.5041 27.1996 9.93937 26.4934 7.51519C25.7759 5.10394 23.4811 3.41225 21.0159 3.17C19.2265 2.97456 17.418 3.02375 15.6207 3H15.6206ZM13.6835 5.14856C16.2268 5.21362 18.7979 5.00269 21.3207 5.40025C23.0131 5.70287 24.3658 7.12837 24.6259 8.82056C24.9649 11.2873 24.8089 13.7946 24.8511 16.279C24.7304 18.2979 25.0716 20.4348 24.2519 22.3468C23.5131 24.0431 21.6 24.7717 19.8572 24.7734C16.5469 24.8753 13.2287 24.8914 9.91952 24.7581C8.12221 24.7416 6.20865 23.8013 5.60897 22.0128C4.9749 20.0114 5.21565 17.8718 5.15834 15.8027C5.19947 13.4089 5.01803 10.9862 5.4174 8.61631C5.75128 6.78525 7.41653 5.46187 9.22909 5.30212C10.7055 5.13756 12.2001 5.16794 13.6835 5.14856ZM21.3679 7.17231C20.1453 7.12494 19.4655 8.8175 20.3835 9.62881C21.2122 10.5401 22.8979 9.82463 22.8255 8.59756C22.8409 7.82113 22.14 7.14738 21.3679 7.17231ZM15.0985 8.84587C12.6903 8.79644 10.325 10.245 9.39034 12.4874C8.03115 15.2757 9.28927 18.9333 12.014 20.3804C14.6373 21.8999 18.2781 21.0806 19.9959 18.5869C21.8529 16.1204 21.4124 12.3109 19.0267 10.3418C17.9483 9.39969 16.5322 8.85275 15.0985 8.84587ZM15.0318 10.9884C17.2861 10.9366 19.2271 13.0709 19 15.3078C18.8928 17.7369 16.2228 19.6058 13.9013 18.8521C11.6113 18.2812 10.312 15.478 11.3422 13.3594C11.9666 11.9279 13.4683 10.957 15.0318 10.9884Z" fill="white"/>
</g>
</svg>
